inDegrees=no
num_controls=7
num_derivatives=13
num_iterations=172
num_multipliers=7
num_parameters=0
num_slacks=7
num_states=26
objective=0.477028
objective_accelerations=0.044207
objective_balance=0.003618
objective_effort=0.040354
objective_height=0.383187
objective_ligament=0.005662
solver_duration=2589.937320
status=Solve_Succeeded
success=true
DataType=double
version=3
OpenSimVersion=4.5
endheader
time	/jointset/ground_pelvis/pelvis_tilt/value	/jointset/ground_pelvis/pelvis_tx/value	/jointset/ground_pelvis/pelvis_ty/value	/jointset/hip_l/hip_flexion_l/value	/jointset/hip_l/hip_adduction_l/value	/jointset/hip_l/hip_rotation_l/value	/jointset/back/lumbar_extension/value	/jointset/patellofemoral_l/patellar_flexion_l/value	/jointset/knee_l/knee_flexion_l/value	/jointset/knee_l/knee_adduction_l/value	/jointset/knee_l/knee_rotation_l/value	/jointset/ankle_l/ankle_angle_l/value	/jointset/subtalar_l/subtalar_angle_l/value	/jointset/ground_pelvis/pelvis_tilt/speed	/jointset/ground_pelvis/pelvis_tx/speed	/jointset/ground_pelvis/pelvis_ty/speed	/jointset/hip_l/hip_flexion_l/speed	/jointset/hip_l/hip_adduction_l/speed	/jointset/hip_l/hip_rotation_l/speed	/jointset/back/lumbar_extension/speed	/jointset/patellofemoral_l/patellar_flexion_l/speed	/jointset/knee_l/knee_flexion_l/speed	/jointset/knee_l/knee_adduction_l/speed	/jointset/knee_l/knee_rotation_l/speed	/jointset/ankle_l/ankle_angle_l/speed	/jointset/subtalar_l/subtalar_angle_l/speed	/forceset/tau_hip_flexion_l	/forceset/tau_hip_adduction_l	/forceset/tau_hip_rotation_l	/forceset/tau_knee_flexion_l	/forceset/tau_ankle_angle_l	/forceset/tau_subtalar_angle_l	/forceset/tau_lumbar_extension	lambda_cid13_p0	lambda_cid13_p1	lambda_cid13_p2	lambda_cid13_p3	lambda_cid13_p4	lambda_cid13_p5	lambda_cid14_p0	/jointset/ground_pelvis/pelvis_tilt/accel	/jointset/ground_pelvis/pelvis_tx/accel	/jointset/ground_pelvis/pelvis_ty/accel	/jointset/hip_l/hip_flexion_l/accel	/jointset/hip_l/hip_adduction_l/accel	/jointset/hip_l/hip_rotation_l/accel	/jointset/back/lumbar_extension/accel	/jointset/patellofemoral_l/patellar_flexion_l/accel	/jointset/knee_l/knee_flexion_l/accel	/jointset/knee_l/knee_adduction_l/accel	/jointset/knee_l/knee_rotation_l/accel	/jointset/ankle_l/ankle_angle_l/accel	/jointset/subtalar_l/subtalar_angle_l/accel	gamma_cid13_p0	gamma_cid13_p1	gamma_cid13_p2	gamma_cid13_p3	gamma_cid13_p4	gamma_cid13_p5	gamma_cid14_p0
1	-0.1062323393727109	-0.05763576687844419	0.682842007893523	1.321816924613807	-0.3281471428133383	0.07208085494406551	-0.9599310885968813	1.399150050826202	1.399150050826197	-0.06537324640176555	-0.1745295436128009	0.2814483131796591	0.06578090423896382	0.1038521894602756	0.02585305004028825	0.06995836476868665	-0.2992857172901749	-0.007308453482337635	-0.06523331970179519	3.023119320978862e-05	-0.1604004330170149	-0.1604004330170203	-0.001847360025187774	-4.884079654868248e-07	0.02624958377211469	0.002996870817536081	-0.3702756176268352	0.0131402238984996	0.001401221292609849	-0.3768882650795518	0.03448495593640905	0.02875358780168836	0.4236927982606684	-39.95683073505548	-4.823318224253439	-0.4485989714248574	14.57714375625995	-798.7186063240109	-72.98613559976199	-0.04155962315883089	0.8112364250788069	-0.02850119950461179	1.532064142657691	-4.908285968225771	-0.1218611578661299	-1.65926620891158	-0.01811024066239364	-4.989516360342874	-4.989516360342885	-0.3481307450728311	-0.01524785486893622	-1.247588210470037	-0.686799388211052	-7.915301362212759e-09	2.021729324780127e-08	6.450997156782151e-08	3.871901301058704e-09	-2.219934482295564e-08	1.265050232423461e-07	-1.700656055477668e-08
1.01	-0.1051535862713529	-0.05737858598292639	0.6836179607167097	1.318579518026703	-0.3282255703610807	0.07134475713843856	-0.9599309898857644	1.397297048026233	1.397297048026227	-0.06540719559231724	-0.1745293802355518	0.2816486079011125	0.06577762551988027	0.1119018940003805	0.02559140636813503	0.08521894019441163	-0.3481740486194885	-0.008368386668701334	-0.08197738652948541	1.529862887008447e-05	-0.2101829836239407	-0.2101829836239434	-0.004938976744727802	3.0521227185962e-05	0.01380302955817809	-0.003643930470286373	-0.3695123983603027	0.01327814890596856	0.001324816029556624	-0.3765804142110997	0.03434727039563103	0.02892804520461022	0.4233635151497604	-39.95810839262729	-4.916912738629412	-0.4130583696603983	14.4054824627626	-798.3104285725211	-73.08556866995315	-0.04159243560473785	0.8023548688981395	-0.02375160632511281	1.521059380816345	-4.875876864904992	-0.09676660530963542	-1.680666427776834	0.0104875330296768	-4.970048257010236	-4.970048257009728	-0.2891630915060873	0.01190174772025774	-1.244138816884064	-0.6514309101360463	-1.59061166663809e-08	1.35806932007146e-08	9.309585189436249e-08	1.364643213200981e-08	-2.947932429659914e-08	1.468577985262592e-07	-2.319215548444295e-08
1.02	-0.1039942326445103	-0.05712377265518104	0.6845461203218108	1.314853874096373	-0.3283143386819463	0.07044148076291959	-0.9599302995123978	1.394946734950966	1.394946734950966	-0.06547195814128529	-0.1745289814869503	0.2817242471224208	0.06570819670570482	0.119972294557357	0.02537953648579786	0.1003997211515947	-0.396933185933638	-0.009376608106590663	-0.09866903368033925	0.0001472579585116733	-0.2598624880765788	-0.2598624880765747	-0.008010031708728349	4.658586286011213e-05	0.001318483743098031	-0.01023314820083696	-0.3687491790938088	0.01341607391343358	0.001248410766507536	-0.3762725633426495	0.0342095848548592	0.02910250260752947	0.4230342320388181	-39.97107160413523	-5.006885156312102	-0.3798955803442097	14.29430018524694	-798.0493331062233	-73.15994813361399	-0.04162593966849629	0.8153756284531267	-0.01854644154140989	1.516105248949301	-4.882447165192932	-0.1115188081712603	-1.648782273544305	0.0112681381339438	-4.968907129485322	-4.968907129484531	-0.3440183939649349	-0.01823685476440697	-1.255186530698738	-0.6764826767566887	-2.3936622920978e-08	4.213264292840829e-09	1.212774192952067e-07	2.230995624434056e-08	-3.744024965275163e-08	1.642577218299271e-07	-2.947821748296602e-08
1.03	-0.1027546216155262	-0.05687055158610544	0.6856257050403508	1.310641439696917	-0.3284129075901859	0.06937159464787497	-0.9599253432764832	1.39210006120733	1.392100061207326	-0.06556737059409916	-0.1745284331011701	0.2816751776553725	0.06557332474963075	0.1278999319685558	0.0253010957766349	0.1155059744080022	-0.4455197395062603	-0.01032924622574593	-0.1152987382331332	0.001088469908173062	-0.3094642968697899	-0.3094642968697752	-0.01107419732174844	6.064406620142832e-05	-0.01110638360867084	-0.01671774875215384	-0.369697884683709	0.01374007334050378	0.001133865821579768	-0.3755669862549505	0.03401293202325621	0.02936212087181281	0.4247635197741977	-40.04967119342653	-5.13336772156105	-0.3283276031067464	13.68663477045787	-798.9742289757025	-73.21215203731369	-0.04166607195631936	0.7739585148438922	0.002976126346304863	1.506189011810246	-4.84167010016716	-0.08596094813756666	-1.668675536055656	0.1722198230691822	-4.954615995921447	-4.954615995920315	-0.2878949775422778	0.01089483685629098	-1.232239962421367	-0.6309411449944486	-3.196753418527335e-08	-5.182030215653238e-09	1.494548610539519e-07	3.096214355342007e-08	-4.540812343627667e-08	1.816275139909394e-07	-3.576530465566109e-08
1.04	-0.1014372340689538	-0.05661702112173148	0.6868560130210194	1.305944157632352	-0.3285207678064884	0.06813568928932108	-0.9599036405009801	1.388757609727425	1.388757609727423	-0.06569348056955662	-0.174527810597559	0.2815026388898053	0.06537430830790845	0.1355275980753814	0.02544141554547204	0.130544373577358	-0.4939027189536951	-0.01123486971889711	-0.1318728823822758	0.003496565845312165	-0.3590180353302992	-0.3590180353302769	-0.01414953623763846	6.140942845852843e-05	-0.0233753759606562	-0.02306204533048114	-0.3706465902736348	0.01406407276757157	0.001019320876658088	-0.3748614091672531	0.03381627919165715	0.02962173913609455	0.4264928075095549	-40.14019593103208	-5.256141842719754	-0.2792019170092372	13.1375762602644	-800.0507333964058	-73.23957923521631	-0.04170538570511668	0.7553813675784949	0.02520565405860666	1.502534431538942	-4.841732340155422	-0.1021158829704486	-1.637670192814042	0.3046449356292895	-4.959293062944953	-4.959293062944761	-0.3462530545389226	-0.02089542298126061	-1.224011530742043	-0.6484218821587817	-3.556134813193475e-08	-1.645962857316283e-08	1.762677057605082e-07	3.045875444898731e-08	-5.023267814697113e-08	1.895648994538102e-07	-4.127583213746833e-08
